<svg xmlns="http://www.w3.org/2000/svg" xmlns:xlink="http://www.w3.org/1999/xlink" width="24" height="24" viewBox="0 0 24 24"><defs><style>.a,.b,.d{fill:#555;}.a,.b{stroke:#707070;}.b{opacity:0;}.c{clip-path:url(#a);}.e{stroke:none;}.f{fill:none;}</style><clipPath id="a"><rect class="a" width="16" height="16" transform="translate(-83.534 110.466)"/></clipPath></defs><g transform="translate(85 -109)"><g class="b" transform="translate(-85 109)"><rect class="e" width="24" height="24"/><rect class="f" x="0.5" y="0.5" width="23" height="23"/></g><g class="c" transform="translate(2.534 2.534)"><path class="d" d="M13.22,0H1.711A1.712,1.712,0,0,0,0,1.711V13.22a1.712,1.712,0,0,0,1.711,1.711H13.22a1.712,1.712,0,0,0,1.711-1.711V1.711A1.712,1.712,0,0,0,13.22,0ZM10.732,8.088H8.088v2.644a.622.622,0,0,1-1.244,0V8.088H4.2a.622.622,0,1,1,0-1.244H6.843V4.2a.622.622,0,1,1,1.244,0V6.843h2.644a.622.622,0,0,1,0,1.244Zm0,0" transform="translate(-83 111)"/></g></g></svg>