<svg xmlns="http://www.w3.org/2000/svg" width="24" height="24" viewBox="0 0 24 24"><defs><style>.a,.b{fill:#555;}.a{stroke:#888;opacity:0;}.c{stroke:none;}.d{fill:none;}</style></defs><g transform="translate(8599 -12287)"><g class="a" transform="translate(-8599 12287)"><rect class="c" width="24" height="24"/><rect class="d" x="0.5" y="0.5" width="23" height="23"/></g><g transform="translate(-6859 10144)"><path class="b" d="M19.286,15.714H.715A.715.715,0,0,1,0,15V0H20V15A.715.715,0,0,1,19.286,15.714ZM3,1.715a1,1,0,0,0-1,1v10a1,1,0,0,0,1,1H17a1,1,0,0,0,1-1v-10a1,1,0,0,0-1-1Z" transform="translate(-1738 2149.286)"/><path class="b" d="M18.214,1.429H14.643a.357.357,0,0,0,0,.714h3.571a.357.357,0,0,0,0-.714Z" transform="translate(-1738 2145)"/><path class="b" d="M19.286,0H.714A.714.714,0,0,0,0,.714V3.571H20V.714A.714.714,0,0,0,19.286,0ZM18.214,2.857H14.643a1.071,1.071,0,0,1,0-2.143h3.571a1.071,1.071,0,0,1,0,2.143Z" transform="translate(-1738 2145)"/><path class="b" d="M13,10H1A1,1,0,0,1,0,9V1A1,1,0,0,1,1,0H13a1,1,0,0,1,1,1V9A1,1,0,0,1,13,10ZM7.593,3.086V8H9.434a2.878,2.878,0,0,0,1.354-.308,2.2,2.2,0,0,0,.9-.868,2.565,2.565,0,0,0,.318-1.281,2.558,2.558,0,0,0-.318-1.284,2.209,2.209,0,0,0-.9-.865,2.871,2.871,0,0,0-1.358-.308ZM3.659,7.132H5.493L5.787,8H7.054L5.276,3.086H3.89L2.112,8H3.365l.294-.868Zm5.7-.167H8.79V4.108h.567a1.435,1.435,0,0,1,1.057.378,1.436,1.436,0,0,1,.378,1.057,1.412,1.412,0,0,1-.378,1.05A1.453,1.453,0,0,1,9.357,6.964ZM5.185,6.208H3.974l.6-1.8.609,1.8Z" transform="translate(-1735 2152)"/></g></g></svg>