<svg xmlns="http://www.w3.org/2000/svg" width="24" height="24" viewBox="0 0 24 24"><defs><style>.a,.b{fill:#fff;}.a{stroke:#707070;opacity:0;}.c{stroke:none;}.d{fill:none;}</style></defs><g transform="translate(1727 -1883)"><g class="a" transform="translate(-1727 1883)"><rect class="c" width="24" height="24"/><rect class="d" x="0.5" y="0.5" width="23" height="23"/></g><g transform="translate(17 -5)"><path class="b" d="M19.286,15.714H.715A.715.715,0,0,1,0,15V0H20V15A.715.715,0,0,1,19.286,15.714ZM3,1.715a1,1,0,0,0-1,1v10a1,1,0,0,0,1,1H17a1,1,0,0,0,1-1v-10a1,1,0,0,0-1-1Z" transform="translate(-1742 1894.286)"/><path class="b" d="M18.214,1.429H14.643a.357.357,0,0,0,0,.714h3.571a.357.357,0,0,0,0-.714Z" transform="translate(-1742 1890)"/><path class="b" d="M19.286,0H.714A.714.714,0,0,0,0,.714V3.571H20V.714A.714.714,0,0,0,19.286,0ZM18.214,2.857H14.643a1.071,1.071,0,0,1,0-2.143h3.571a1.071,1.071,0,0,1,0,2.143Z" transform="translate(-1742 1890)"/><path class="b" d="M-103,163h-12a1,1,0,0,1-1-1v-8a1,1,0,0,1,1-1h12a1,1,0,0,1,1,1v8A1,1,0,0,1-103,163Zm-8.737-4.4c-.365,0-.739.278-1.25.928l-.01.013c-.331.418-.673.85-1.013,1.274a.576.576,0,0,0-.118.458.52.52,0,0,0,.238.361,2.979,2.979,0,0,0,1.589.418h6.115a3.3,3.3,0,0,0,1.021-.155,2.7,2.7,0,0,0,1.64-1.532,2.721,2.721,0,0,0,.143-1.989,1.639,1.639,0,0,0-.372-.569l0,0a7.786,7.786,0,0,0-1.353-1.156,1.037,1.037,0,0,0-.551-.171,1.361,1.361,0,0,0-.989.585c-.13.175-.242.361-.361.558l-.005.009-.066.109-.006.011a4.122,4.122,0,0,1-1.421,1.607,1.806,1.806,0,0,1-.877.243,2.579,2.579,0,0,1-1.421-.57,4.023,4.023,0,0,0-.6-.355A.813.813,0,0,0-111.737,158.6Zm.826-4.652a1.448,1.448,0,0,0-1.446,1.447,1.448,1.448,0,0,0,1.446,1.447,1.448,1.448,0,0,0,1.446-1.447A1.448,1.448,0,0,0-110.911,153.948Z" transform="translate(-1623 1744)"/></g></g></svg>