<svg xmlns="http://www.w3.org/2000/svg" xmlns:xlink="http://www.w3.org/1999/xlink" width="24" height="24" viewBox="0 0 24 24"><defs><style>.a,.b,.d{fill:#555;}.a,.b{stroke:#707070;}.b{opacity:0;}.c{clip-path:url(#a);}.e{stroke:none;}.f{fill:none;}</style><clipPath id="a"><rect class="a" width="20" height="20" transform="translate(-83 111)"/></clipPath></defs><g transform="translate(85 -109)"><g class="b" transform="translate(-85 109)"><rect class="e" width="24" height="24"/><rect class="f" x="0.5" y="0.5" width="23" height="23"/></g><g class="c"><path class="d" d="M19.854.162a.481.481,0,0,0-.681,0L17.085,2.249l-.942-.942a2.4,2.4,0,0,0-1.928-.7l-3.359.3a2.436,2.436,0,0,0-1.489.7L.707,10.262a2.418,2.418,0,0,0,0,3.417L6.332,19.3a2.427,2.427,0,0,0,3.422,0l8.656-8.656a2.4,2.4,0,0,0,.7-1.489l.3-3.359a2.422,2.422,0,0,0-.7-1.928l-.942-.942L19.859.843a.477.477,0,0,0,0-.682Zm-4.746,7.6a2.016,2.016,0,1,1-.387-3.151L14,5.333a.991.991,0,0,0-.314-.048,1.045,1.045,0,1,0,1,.725l.725-.725a2.027,2.027,0,0,1-.295,2.474Zm0,0" transform="translate(-83 110.985)"/></g></g></svg>