<svg xmlns="http://www.w3.org/2000/svg" width="24" height="24" viewBox="0 0 24 24"><defs><style>.a,.b{fill:#fff;}.a{stroke:#707070;opacity:0;}.c{stroke:none;}.d{fill:none;}</style></defs><g transform="translate(-117 -586)"><g class="a" transform="translate(117 586)"><rect class="c" width="24" height="24"/><rect class="d" x="0.5" y="0.5" width="23" height="23"/></g><g transform="translate(-203 546)"><g transform="translate(322 42)"><g transform="translate(0)"><path class="b" d="M15.149,18.459A1.514,1.514,0,1,1,16.668,20,1.535,1.535,0,0,1,15.149,18.459Zm-11.241,0A1.514,1.514,0,1,1,5.426,20,1.534,1.534,0,0,1,3.908,18.459Zm1.679-3.164a2.509,2.509,0,0,1-1.726-.689,2.616,2.616,0,0,1-.812-1.7L2.129,1.784.62,1.518A.766.766,0,0,1,.765,0,.817.817,0,0,1,.88.009L3.263.375a.768.768,0,0,1,.619.694l.19,2.286a.617.617,0,0,0,.609.572H18.176a1.689,1.689,0,0,1,1.409.684,2.251,2.251,0,0,1,.38,1.754l-.95,6.694a2.582,2.582,0,0,1-2.528,2.235Zm5.785-6.826a.758.758,0,0,0,.75.765h2.767a.758.758,0,0,0,.75-.765.75.75,0,0,0-.75-.766H12.121A.75.75,0,0,0,11.372,8.468Z"/></g></g></g></g></svg>