<svg xmlns="http://www.w3.org/2000/svg" xmlns:xlink="http://www.w3.org/1999/xlink" width="24" height="24" viewBox="0 0 24 24"><defs><style>.a,.b,.d{fill:#555;}.a,.b{stroke:#707070;}.b{opacity:0;}.c{clip-path:url(#a);}.e{stroke:none;}.f{fill:none;}</style><clipPath id="a"><rect class="a" width="20" height="20" transform="translate(-83 111)"/></clipPath></defs><g transform="translate(85 -109)"><g class="b" transform="translate(-85 109)"><rect class="e" width="24" height="24"/><rect class="f" x="0.5" y="0.5" width="23" height="23"/></g><g class="c"><g transform="translate(-83 111)"><path class="d" d="M5.362,0H.725a.58.58,0,0,0-.58.58V5.217a.58.58,0,0,0,.58.58H5.362a.58.58,0,0,0,.58-.58V.58A.58.58,0,0,0,5.362,0Z"/><path class="d" d="M12.319,0H7.681A.58.58,0,0,0,7.1.58V5.217a.58.58,0,0,0,.58.58h4.638a.58.58,0,0,0,.58-.58V.58A.58.58,0,0,0,12.319,0Z"/><path class="d" d="M5.362,6.957H.725a.58.58,0,0,0-.58.58v4.638a.58.58,0,0,0,.58.58H5.362a.58.58,0,0,0,.58-.58V7.536A.58.58,0,0,0,5.362,6.957Z"/><path class="d" d="M12.319,6.957H7.681a.58.58,0,0,0-.58.58v4.638a.58.58,0,0,0,.58.58h4.638a.58.58,0,0,0,.58-.58V7.536A.58.58,0,0,0,12.319,6.957Z"/><path class="d" d="M19.275,0H14.638a.58.58,0,0,0-.58.58V5.217a.58.58,0,0,0,.58.58h4.638a.58.58,0,0,0,.58-.58V.58A.58.58,0,0,0,19.275,0Z"/><path class="d" d="M19.275,6.957H14.638a.58.58,0,0,0-.58.58v4.638a.58.58,0,0,0,.58.58h4.638a.58.58,0,0,0,.58-.58V7.536A.58.58,0,0,0,19.275,6.957Z"/><path class="d" d="M5.362,14.2H.725a.58.58,0,0,0-.58.58V19.42a.58.58,0,0,0,.58.58H5.362a.58.58,0,0,0,.58-.58V14.783A.58.58,0,0,0,5.362,14.2Z"/><path class="d" d="M12.319,14.2H7.681a.58.58,0,0,0-.58.58V19.42a.58.58,0,0,0,.58.58h4.638a.58.58,0,0,0,.58-.58V14.783A.58.58,0,0,0,12.319,14.2Z"/><path class="d" d="M19.275,14.2H14.638a.58.58,0,0,0-.58.58V19.42a.58.58,0,0,0,.58.58h4.638a.58.58,0,0,0,.58-.58V14.783A.58.58,0,0,0,19.275,14.2Z"/></g></g></g></svg>