<?xml version="1.0" encoding="UTF-8"?>
<svg xmlns="http://www.w3.org/2000/svg" xmlns:xlink="http://www.w3.org/1999/xlink" width="24px" height="24px" viewBox="0 0 24 24" version="1.1">
<g id="surface1">
<path style=" stroke:none;fill-rule:nonzero;fill:rgb(62.745098%,61.960784%,61.960784%);fill-opacity:1;" d="M 9.285156 8.59375 C 10.058594 8.652344 10.039062 8.652344 11.332031 8.746094 L 13.613281 8.023438 L 15.632812 10.726562 L 14.214844 10.726562 C 14.207031 10.996094 14.144531 11.25 14.027344 11.488281 L 15.492188 11.488281 C 15.71875 12.082031 16.292969 12.503906 16.964844 12.503906 L 19.964844 12.503906 C 20.835938 12.503906 21.539062 11.800781 21.539062 10.929688 C 21.539062 10.816406 21.449219 10.726562 21.335938 10.726562 L 16.65625 10.726562 L 14.371094 7.667969 C 14.636719 7.40625 14.75 7.007812 14.628906 6.625 C 14.457031 6.085938 13.882812 5.789062 13.34375 5.960938 L 13.140625 6.023438 L 12.871094 5.667969 C 12.738281 5.484375 12.480469 5.449219 12.300781 5.585938 C 12.117188 5.71875 12.082031 5.976562 12.214844 6.160156 L 12.3125 6.285156 L 10.660156 6.808594 L 8.597656 5.652344 C 8.355469 5.195312 7.878906 4.882812 7.328125 4.882812 L 4.769531 4.882812 C 3.976562 4.882812 3.332031 5.527344 3.332031 6.316406 L 3.332031 9.65625 L 5.761719 9.65625 C 5.761719 8.800781 5.761719 8.753906 5.761719 8.183594 L 5.636719 7.75 L 7.394531 10.875 C 7.5625 11.167969 7.863281 11.367188 8.214844 11.394531 L 12.296875 11.695312 C 12.863281 11.734375 13.351562 11.308594 13.394531 10.75 C 13.433594 10.199219 13.023438 9.691406 12.449219 9.652344 L 8.914062 9.390625 L 7.320312 6.558594 C 8.898438 8.195312 8.75 8.042969 9.285156 8.59375 Z M 19.402344 7.097656 C 19.394531 7.160156 19.417969 7.226562 19.460938 7.253906 C 19.507812 7.285156 19.558594 7.269531 19.59375 7.222656 C 19.847656 6.855469 20.109375 6.332031 19.976562 5.855469 C 19.777344 5.136719 19.578125 4.820312 19.671875 4.277344 C 19.675781 4.242188 19.664062 4.203125 19.636719 4.1875 C 19.613281 4.171875 19.585938 4.183594 19.566406 4.210938 C 19.398438 4.484375 19.183594 4.964844 19.242188 5.582031 C 19.3125 6.28125 19.46875 6.644531 19.402344 7.097656 Z M 19.402344 7.097656 "/>
<path style=" stroke:none;fill-rule:nonzero;fill:rgb(62.745098%,61.960784%,61.960784%);fill-opacity:1;" d="M 17.925781 9.746094 C 17.917969 9.808594 17.941406 9.875 17.984375 9.902344 C 18.03125 9.933594 18.082031 9.917969 18.117188 9.871094 C 18.371094 9.503906 18.632812 8.980469 18.5 8.503906 C 18.300781 7.785156 18.101562 7.46875 18.195312 6.925781 C 18.199219 6.890625 18.1875 6.851562 18.160156 6.835938 C 18.136719 6.820312 18.105469 6.832031 18.089844 6.859375 C 17.921875 7.132812 17.707031 7.613281 17.765625 8.230469 C 17.835938 8.929688 17.992188 9.292969 17.925781 9.746094 Z M 22.140625 13.351562 L 14.84375 13.351562 C 14.390625 13.351562 14.023438 13.71875 14.023438 14.171875 C 14.023438 14.625 14.390625 14.992188 14.84375 14.992188 L 14.84375 23.574219 C 14.84375 23.75 14.984375 23.890625 15.15625 23.890625 L 21.828125 23.890625 C 22 23.890625 22.140625 23.75 22.140625 23.574219 L 22.140625 14.992188 C 22.59375 14.992188 22.960938 14.625 22.960938 14.171875 C 22.960938 13.71875 22.59375 13.351562 22.140625 13.351562 Z M 9.828125 16.410156 L 7.210938 16.410156 L 7.484375 17.160156 L 6.351562 22.515625 C 6.210938 23.179688 6.632812 23.832031 7.300781 23.972656 C 7.964844 24.113281 8.617188 23.6875 8.757812 23.023438 L 9.964844 17.324219 C 10.046875 16.929688 9.925781 16.671875 9.828125 16.410156 Z M 3.332031 12.140625 C 3.332031 14.058594 3.363281 12.933594 3.179688 17.328125 L 1.132812 22.300781 C 0.871094 22.929688 1.171875 23.648438 1.800781 23.90625 C 2.429688 24.164062 3.144531 23.867188 3.40625 23.238281 L 5.535156 18.066406 C 5.589844 17.933594 5.621094 17.792969 5.628906 17.648438 C 5.789062 13.785156 5.761719 14.945312 5.761719 12.140625 Z M 3.332031 12.140625 "/>
<path style=" stroke:none;fill-rule:nonzero;fill:rgb(62.745098%,61.960784%,61.960784%);fill-opacity:1;" d="M 8.183594 2.125 C 8.183594 3.296875 7.230469 4.246094 6.058594 4.246094 C 4.886719 4.246094 3.933594 3.296875 3.933594 2.125 C 3.933594 0.949219 4.886719 0 6.058594 0 C 7.230469 0 8.183594 0.949219 8.183594 2.125 Z M 8.183594 2.125 "/>
<path style=" stroke:none;fill-rule:nonzero;fill:rgb(62.745098%,61.960784%,61.960784%);fill-opacity:1;" d="M 9.441406 12.304688 L 8.152344 12.210938 C 7.273438 12.144531 6.71875 11.484375 6.609375 11.101562 L 6.398438 10.378906 L 3.332031 10.378906 L 3.332031 11.414062 L 6.488281 11.414062 L 6.488281 15.320312 C 6.488281 15.523438 6.648438 15.683594 6.851562 15.683594 L 10.046875 15.683594 C 10.164062 15.683594 10.273438 15.628906 10.339844 15.535156 C 10.410156 15.441406 10.429688 15.320312 10.390625 15.210938 Z M 9.441406 12.304688 "/>
</g>
</svg>
