<svg xmlns="http://www.w3.org/2000/svg" xmlns:xlink="http://www.w3.org/1999/xlink" width="24" height="24" viewBox="0 0 24 24"><defs><style>.a,.b,.d,.e{fill:#fff;}.a,.b{stroke:#707070;}.b{opacity:0;}.c{clip-path:url(#a);}.d{fill-rule:evenodd;}.f{stroke:none;}.g{fill:none;}</style><clipPath id="a"><rect class="a" width="20" height="20" transform="translate(-83 111)"/></clipPath></defs><g transform="translate(85 -109)"><g class="b" transform="translate(-85 109)"><rect class="f" width="24" height="24"/><rect class="g" x="0.5" y="0.5" width="23" height="23"/></g><g class="c"><g transform="translate(-83 111)"><path class="d" d="M17.152,12.716l2.727-2.444a.364.364,0,0,0,0-.54L17.175,7.277a.364.364,0,0,0-.608.267l-.02,3.183v1.719a.364.364,0,0,0,.606.271Z"/><path class="d" d="M9.272,16.545H7.556a.364.364,0,0,0-.271.606l2.439,2.727a.364.364,0,0,0,.54,0l2.459-2.709a.364.364,0,0,0-.267-.608Z"/><path class="d" d="M2.849,7.284.122,9.723a.364.364,0,0,0,0,.54l2.708,2.459a.364.364,0,0,0,.608-.267l.019-3.182V7.555a.364.364,0,0,0-.606-.271Z"/><path class="d" d="M9.734.12l-2.456,2.7a.364.364,0,0,0,.267.608l3.181.022h1.72a.364.364,0,0,0,.271-.606L10.274.121a.364.364,0,0,0-.54,0Z"/><circle class="e" cx="3.273" cy="3.273" r="3.273" transform="translate(6.726 6.727)"/></g></g></g></svg>