<svg xmlns="http://www.w3.org/2000/svg" width="24" height="24" viewBox="0 0 24 24"><defs><style>.a,.b{fill:#fff;}.a{stroke:#707070;}.a,.c{opacity:0;}.d{fill:#b7bfce;}.e{stroke:none;}.f{fill:none;}</style></defs><g transform="translate(12322 -8598)"><g transform="translate(-12322 8598)"><g class="a"><rect class="e" width="24" height="24"/><rect class="f" x="0.5" y="0.5" width="23" height="23"/></g><g class="a" transform="translate(2 2)"><rect class="e" width="20" height="20"/><rect class="f" x="0.5" y="0.5" width="19" height="19"/></g></g><g transform="translate(-12320 8603.746)"><path class="b" d="M10,4.039c-3.821,0-7.285,2.087-9.843,5.485a.787.787,0,0,0,0,.943c2.558,3.4,6.022,5.493,9.843,5.493s7.285-2.087,9.843-5.485a.787.787,0,0,0,0-.943C17.285,6.13,13.821,4.039,10,4.039ZM10.275,14.2A4.2,4.2,0,1,1,14.2,10.275,4.2,4.2,0,0,1,10.275,14.2Z" transform="translate(0 -4.039)"/><path class="b" d="M10.148,12.259a2.264,2.264,0,1,1,2.111-2.111A2.266,2.266,0,0,1,10.148,12.259Z" transform="translate(0 -4.039)"/></g><g class="c" transform="translate(-12307.877 8600.332)"><rect class="b" width="2.609" height="1" transform="translate(0.358) rotate(21)"/><rect class="d" width="0.609" height="1" transform="translate(0.358) rotate(21)"/></g></g></svg>