<svg xmlns="http://www.w3.org/2000/svg" width="24" height="24" viewBox="0 0 24 24"><defs><style>.a,.b{fill:#fff;}.a{stroke:#707070;opacity:0;}.c{stroke:none;}.d{fill:none;}</style></defs><g transform="translate(1731 -1927)"><g class="a" transform="translate(-1731 1927)"><rect class="c" width="24" height="24"/><rect class="d" x="0.5" y="0.5" width="23" height="23"/></g><g transform="translate(12 13)"><g transform="translate(1 26)"><path class="b" d="M19.286,15.714H.715A.715.715,0,0,1,0,15V0H20V15A.715.715,0,0,1,19.286,15.714ZM3,3.714a1,1,0,0,0-1,1v7a1,1,0,0,0,1,1H17a1,1,0,0,0,1-1v-7a1,1,0,0,0-1-1Z" transform="translate(-1742 1894.286)"/><path class="b" d="M18.214,1.429H14.643a.357.357,0,0,0,0,.714h3.571a.357.357,0,0,0,0-.714Z" transform="translate(-1742 1890)"/><path class="b" d="M19.286,0H.714A.714.714,0,0,0,0,.714V3.571H20V.714A.714.714,0,0,0,19.286,0ZM18.214,2.857H14.643a1.071,1.071,0,0,1,0-2.143h3.571a1.071,1.071,0,0,1,0,2.143Z" transform="translate(-1742 1890)"/><path class="b" d="M-103,320h-12a1,1,0,0,1-1-1v-5a1,1,0,0,1,1-1h12a1,1,0,0,1,1,1v5A1,1,0,0,1-103,320Zm-8.475-3.329c-.3,0-.6.2-1.017.685l-.063.072c-.252.289-.512.586-.77.878a.4.4,0,0,0-.1.333.387.387,0,0,0,.195.273,2.625,2.625,0,0,0,1.292.308h4.973a2.931,2.931,0,0,0,.83-.114,2.121,2.121,0,0,0,1.334-1.13,1.84,1.84,0,0,0,.117-1.468,1.216,1.216,0,0,0-.3-.419,6.2,6.2,0,0,0-1.1-.858.905.905,0,0,0-.447-.126,1.121,1.121,0,0,0-.8.432c-.106.13-.2.267-.3.413l-.057.085,0,.005a3.156,3.156,0,0,1-1.157,1.189,1.582,1.582,0,0,1-.712.179,2.194,2.194,0,0,1-1.156-.42,3.317,3.317,0,0,0-.489-.262A.714.714,0,0,0-111.474,316.671Zm1.569-2.482a.906.906,0,0,0-.9.905.906.906,0,0,0,.9.905.906.906,0,0,0,.905-.905A.906.906,0,0,0-109.905,314.189Z" transform="translate(-1623 1586)"/></g></g></g></svg>