<svg xmlns="http://www.w3.org/2000/svg" xmlns:xlink="http://www.w3.org/1999/xlink" width="24" height="24" viewBox="0 0 24 24"><defs><style>.a,.b,.e{fill:#555;}.a,.b{stroke:#707070;}.b{opacity:0;}.c{clip-path:url(#a);}.d,.g{fill:none;}.d{stroke:#000;stroke-linecap:round;stroke-linejoin:round;stroke-miterlimit:10;stroke-width:1.25px;}.f{stroke:none;}</style><clipPath id="a"><rect class="a" width="20" height="20" transform="translate(-83 111)"/></clipPath></defs><g transform="translate(85 -109)"><g class="b" transform="translate(-85 109)"><rect class="f" width="24" height="24"/><rect class="g" x="0.5" y="0.5" width="23" height="23"/></g><g class="c"><g transform="translate(-83 111.074)"><path class="d"/><path class="d"/><path class="e" d="M9.255,9.262.271,5.479A.2.2,0,0,0,0,5.659V15.772a.625.625,0,0,0,.393.58l8.714,3.486a.2.2,0,0,0,.268-.181V9.442a.2.2,0,0,0-.12-.18Z"/><path class="e" d="M10.076,8.187,18.76,4.531a.2.2,0,0,0,.007-.357L10.264.206a.625.625,0,0,0-.529,0l-8.5,3.968a.2.2,0,0,0,.007.357L9.924,8.187a.2.2,0,0,0,.152,0Z"/><path class="e" d="M10.625,9.442V19.657a.2.2,0,0,0,.268.181l8.714-3.486a.625.625,0,0,0,.393-.58V5.659a.2.2,0,0,0-.271-.18L10.745,9.262a.2.2,0,0,0-.12.18Z"/></g></g></g></svg>