<svg xmlns="http://www.w3.org/2000/svg" xmlns:xlink="http://www.w3.org/1999/xlink" width="24" height="24" viewBox="0 0 24 24"><defs><style>.a,.b,.d{fill:#fff;}.a,.b{stroke:#707070;}.b{opacity:0;}.c{clip-path:url(#a);}.e{stroke:none;}.f{fill:none;}</style><clipPath id="a"><rect class="a" width="20" height="20" transform="translate(-83 111)"/></clipPath></defs><g transform="translate(85 -109)"><g class="b" transform="translate(-85 109)"><rect class="e" width="24" height="24"/><rect class="f" x="0.5" y="0.5" width="23" height="23"/></g><g class="c"><g transform="translate(-83 111)"><path class="d" d="M16.563,2.5H13.125V1.875A1.875,1.875,0,0,0,11.25,0H8.75A1.875,1.875,0,0,0,6.875,1.875V2.5H3.438A1.563,1.563,0,0,0,1.875,4.063v1.25a.625.625,0,0,0,.625.625h15a.625.625,0,0,0,.625-.625V4.063A1.563,1.563,0,0,0,16.563,2.5ZM8.125,1.875A.626.626,0,0,1,8.75,1.25h2.5a.626.626,0,0,1,.625.625V2.5H8.125Z"/><path class="d" d="M3.061,7.188a.2.2,0,0,0-.2.2l.516,10.822A1.873,1.873,0,0,0,5.254,20h9.491a1.873,1.873,0,0,0,1.873-1.786l.516-10.822a.2.2,0,0,0-.2-.2ZM12.5,8.75a.625.625,0,0,1,1.25,0v8.125a.625.625,0,0,1-1.25,0Zm-3.125,0a.625.625,0,0,1,1.25,0v8.125a.625.625,0,0,1-1.25,0Zm-3.125,0a.625.625,0,0,1,1.25,0v8.125a.625.625,0,0,1-1.25,0Z"/></g></g></g></svg>