<svg xmlns="http://www.w3.org/2000/svg" width="24" height="24" viewBox="0 0 24 24"><defs><style>.a,.b{fill:#777;stroke:#777;}.a{opacity:0;}.b{stroke-width:0.5px;}.c{stroke:none;}.d{fill:none;}</style></defs><g transform="translate(1388 -1335)"><g transform="translate(-1303 1226)"><g class="a" transform="translate(-85 109)"><rect class="c" width="24" height="24"/><rect class="d" x="0.5" y="0.5" width="23" height="23"/></g><g class="a" transform="translate(-83 111)"><rect class="c" width="20" height="20"/><rect class="d" x="0.5" y="0.5" width="19" height="19"/></g></g><g transform="translate(-1801.919 1079.321)"><path class="b" d="M421.86,260c.5,0,1,0,1.5,0,.43,0,.7.234.71.6a.626.626,0,0,1-.706.638c-.928.006-1.856,0-2.784,0-.758,0-1.086.333-1.087,1.1,0,.908.014,1.817-.011,2.725a.9.9,0,0,1-.24.6.8.8,0,0,1-.6.1.494.494,0,0,1-.383-.514c-.006-1.108-.045-2.219.016-3.323A2.109,2.109,0,0,1,420.363,260C420.862,259.99,421.361,260,421.86,260Z" transform="translate(0)"/><path class="b" d="M579.6,260c.479,0,.958,0,1.437,0a2.15,2.15,0,0,1,2.144,2.131c.01,1,0,2,0,3a.623.623,0,1,1-1.237,0c-.007-.919,0-1.837,0-2.756,0-.807-.32-1.13-1.117-1.131h-2.605a2.215,2.215,0,0,1-.3-.01.613.613,0,0,1-.558-.659.606.606,0,0,1,.619-.568C578.525,260,579.064,260,579.6,260Z" transform="translate(-149.588 -0.007)"/><path class="b" d="M418.4,421.232c0-.509,0-1.019,0-1.528a.621.621,0,1,1,1.236,0c.008.939,0,1.877,0,2.816,0,.757.336,1.087,1.1,1.088h2.635a1.9,1.9,0,0,1,.328.018.606.606,0,0,1,.516.634.592.592,0,0,1-.573.581c-1.1.01-2.2.041-3.293-.011a2.115,2.115,0,0,1-1.952-2.1C418.393,422.231,418.4,421.732,418.4,421.232Z" transform="translate(-0.151 -149.494)"/><path class="b" d="M583.218,421.267c0,.479,0,.958,0,1.438a2.153,2.153,0,0,1-2.151,2.155c-.988.008-1.976,0-2.964,0a.621.621,0,0,1-.7-.607c-.006-.379.267-.629.713-.631.928-.005,1.856,0,2.784,0,.743,0,1.079-.335,1.081-1.076,0-.879,0-1.757,0-2.636,0-.09,0-.18,0-.269a.616.616,0,0,1,.653-.6.61.61,0,0,1,.58.639C583.224,420.208,583.218,420.738,583.218,421.267Z" transform="translate(-149.62 -149.509)"/></g></g></svg>