<svg xmlns="http://www.w3.org/2000/svg" xmlns:xlink="http://www.w3.org/1999/xlink" width="32" height="32" viewBox="0 0 32 32"><defs><style>.a,.b,.d{fill:#555;}.a,.b{stroke:#707070;}.b{opacity:0;}.c{clip-path:url(#a);}.e{stroke:none;}.f{fill:none;}</style><clipPath id="a"><rect class="a" width="26" height="26" transform="translate(1018 23)"/></clipPath></defs><g transform="translate(-1015 -20)"><g class="b" transform="translate(1015 20)"><rect class="e" width="32" height="32"/><rect class="f" x="0.5" y="0.5" width="31" height="31"/></g><g class="c"><g transform="translate(1018 23)"><path class="d" d="M18.8,0H7.2A1.761,1.761,0,0,0,5.448,1.756V24.243A1.762,1.762,0,0,0,7.2,26H18.8a1.761,1.761,0,0,0,1.756-1.756V1.756A1.761,1.761,0,0,0,18.8,0Zm-7.65,1.266h3.708a.213.213,0,0,1,0,.426H11.146a.213.213,0,0,1,0-.426ZM13,25.122a.878.878,0,1,1,.878-.879A.878.878,0,0,1,13,25.122Zm6.33-2.372H6.67V2.785H19.33Z"/></g></g></g></svg>