<svg width="68" height="20" viewBox="0 0 68 20" fill="none" xmlns="http://www.w3.org/2000/svg">
<path fill-rule="evenodd" clip-rule="evenodd" d="M67.5526 0.722198C67.704 0.760609 67.8337 0.852503 67.9142 0.978512C67.9947 1.10452 68.0198 1.25481 67.9842 1.39779L66.8803 6.0571C66.8637 6.16899 66.8021 6.27074 66.708 6.34148C66.6138 6.41223 66.4944 6.44665 66.374 6.43766H64.797C64.7262 6.43773 64.6561 6.42434 64.5909 6.39831C64.5258 6.37228 64.467 6.33414 64.4181 6.28622C64.3692 6.23829 64.3312 6.18155 64.3065 6.11948C64.2817 6.05741 64.2707 5.99128 64.274 5.9251C64.274 5.9251 64.274 5.87076 64.274 5.8397C64.3487 4.28659 63.3196 3.17612 60.9955 3.17612C57.1277 3.17612 54.3555 6.14253 53.9488 10.0408C53.5669 14.0634 56.5716 16.4086 60.7382 16.4086C62.3676 16.4133 63.9881 16.1855 65.544 15.7329C65.6305 15.7071 65.7226 15.7028 65.8114 15.7204C65.9002 15.7381 65.9825 15.777 66.0503 15.8334C66.1182 15.8898 66.1691 15.9618 66.1982 16.0422C66.2273 16.1226 66.2336 16.2087 66.2163 16.2921L65.7266 18.7072C65.7096 18.8094 65.6615 18.9049 65.5878 18.982C65.5142 19.0592 65.4182 19.1148 65.3116 19.142C63.0656 19.749 60.735 20.0369 58.3976 19.9962C49.6825 19.9962 46.1466 15.3369 46.6944 10.53C47.1841 6.27454 50.1888 0.00777338 62.0579 7.86361e-06C63.9237 -0.00157636 65.7808 0.236219 67.5775 0.706697M18.474 0.706697C18.4907 0.585111 18.5571 0.474272 18.6592 0.397521C18.7614 0.32077 18.8914 0.284061 19.0218 0.295102H27.5793C27.6575 0.295595 27.7346 0.312492 27.805 0.344584C27.8753 0.376675 27.937 0.423129 27.9856 0.480512C28.0342 0.537894 28.0684 0.604777 28.0857 0.676172C28.103 0.747568 28.103 0.821686 28.0856 0.893062L27.7951 2.11998C27.7778 2.22305 27.7229 2.31738 27.6397 2.38678C27.5564 2.45618 27.45 2.49639 27.3386 2.50053H27.2722C26.2751 2.59449 25.322 2.93187 24.5082 3.47895L17.4033 9.05463L22.8814 15.9892C23.9438 17.2705 24.4667 17.4957 25.5374 17.5423C25.6185 17.5452 25.698 17.5646 25.7702 17.5992C25.8425 17.6338 25.9057 17.6829 25.9556 17.7428C26.0054 17.8028 26.0406 17.8722 26.0587 17.9462C26.0768 18.0202 26.0773 18.0971 26.0603 18.1713L25.7615 19.4138C25.745 19.5251 25.683 19.6261 25.5886 19.6956C25.4942 19.7651 25.3747 19.7976 25.2552 19.7865H20.989C16.2662 19.7865 14.9631 17.8529 11.0288 11.1202L9.88341 16.0281C9.70911 16.8046 10.3897 17.1929 10.8877 17.387H10.9541C11.0151 17.4029 11.0719 17.4302 11.1212 17.4674C11.1704 17.5045 11.2111 17.5507 11.2406 17.603C11.2701 17.6553 11.2879 17.7128 11.2929 17.7718C11.2979 17.8308 11.2899 17.8901 11.2695 17.9461L10.9292 19.3828C10.9146 19.4955 10.8535 19.5984 10.7589 19.6695C10.6643 19.7406 10.5437 19.7742 10.4229 19.7633H0.545781C0.463818 19.7642 0.382726 19.7475 0.308643 19.7147C0.234559 19.6819 0.169417 19.6337 0.118212 19.5739C0.0670066 19.514 0.0310782 19.444 0.0131181 19.3692C-0.00484202 19.2943 -0.00435948 19.2166 0.0145619 19.142L0.305071 17.9151C0.322476 17.8017 0.381851 17.6976 0.472857 17.621C0.563862 17.5443 0.680733 17.5 0.803083 17.4957C1.7078 17.3948 2.65401 16.859 3.24332 14.242L5.48436 4.64378C5.63173 4.25853 5.61064 3.83447 5.4257 3.46369C5.24075 3.09291 4.90689 2.80536 4.49665 2.66357H4.40533C4.33676 2.64958 4.27212 2.62219 4.21566 2.58319C4.1592 2.54419 4.11217 2.49449 4.07769 2.4373C4.0432 2.3801 4.02203 2.3167 4.01555 2.25132C4.00908 2.18594 4.01746 2.12004 4.04012 2.05789L4.34722 0.776562C4.36389 0.652918 4.43116 0.540147 4.53487 0.461942C4.63858 0.383738 4.77066 0.346208 4.90334 0.357238H14.2991C14.3754 0.357953 14.4505 0.37453 14.5191 0.405777C14.5878 0.437025 14.6481 0.48217 14.6957 0.537917C14.7434 0.593664 14.7772 0.658637 14.7948 0.728119C14.8123 0.797602 14.8131 0.869852 14.7971 0.939655L14.4983 2.20544C14.48 2.29717 14.4345 2.38219 14.367 2.45085C14.2995 2.51952 14.2127 2.56904 14.1165 2.59371H14.0418C13.7168 2.68 13.4217 2.84441 13.1858 3.07057C12.9499 3.29674 12.7814 3.57675 12.6971 3.88276L11.4438 9.22544L18.7313 3.55663C18.829 3.50216 18.9069 3.42137 18.9546 3.32481C19.0024 3.22825 19.0179 3.12043 18.9991 3.0155C18.9802 2.91057 18.9279 2.81341 18.849 2.73676C18.7702 2.6601 18.6684 2.60754 18.557 2.58594C18.484 2.57421 18.4145 2.54761 18.3536 2.50801C18.2928 2.46842 18.2419 2.41677 18.2047 2.35677C18.1675 2.29678 18.1448 2.22988 18.1383 2.16079C18.1318 2.09169 18.1416 2.02211 18.1669 1.95693L18.4574 0.73774M44.7937 6.08043C44.7199 6.08085 44.6468 6.06663 44.5792 6.03872C44.5117 6.0108 44.4512 5.96982 44.4018 5.91847C44.3524 5.86711 44.3152 5.80655 44.2926 5.74077C44.27 5.67499 44.2626 5.60549 44.2708 5.53683V5.47469C44.3538 4.2555 43.9056 3.54886 42.4531 3.54886H37.9378L36.7343 8.6974H43.2001C43.2775 8.69814 43.3537 8.7149 43.4233 8.74655C43.4929 8.77819 43.5541 8.8239 43.6025 8.88035C43.651 8.93681 43.6854 9.00265 43.7034 9.07306C43.7213 9.14348 43.7224 9.21675 43.7064 9.28759L43.0756 11.9434C43.059 12.0553 42.9974 12.157 42.9032 12.2278C42.8091 12.2985 42.6896 12.3329 42.5693 12.3239H35.8711C35.8711 12.3239 35.1241 15.4767 35.0992 15.6165C35.0155 15.9741 35.0696 16.3478 35.2519 16.6718C35.4341 16.9957 35.7328 17.2491 36.0952 17.387H36.1699C36.2799 17.4225 36.3709 17.4966 36.4236 17.5937C36.4762 17.6908 36.4865 17.8033 36.4521 17.9073L36.1118 19.3594C36.0972 19.4721 36.0361 19.575 35.9414 19.6461C35.8468 19.7172 35.7263 19.7509 35.6055 19.7399H27.7287C27.6508 19.7407 27.5738 19.7248 27.5034 19.6936C27.433 19.6624 27.3711 19.6167 27.3223 19.5599C27.2736 19.5031 27.2393 19.4366 27.2219 19.3656C27.2046 19.2946 27.2048 19.2208 27.2223 19.1498L30.6835 4.64378C30.7606 4.44872 30.795 4.24119 30.7848 4.03344C30.7745 3.82569 30.7198 3.62197 30.6238 3.43439C30.5278 3.24681 30.3926 3.07916 30.226 2.94142C30.0595 2.80368 29.8651 2.69865 29.6543 2.63254H29.5962C29.5307 2.61846 29.469 2.59169 29.4153 2.55399C29.3615 2.51629 29.3167 2.46846 29.2839 2.4136C29.2511 2.35874 29.2309 2.29804 29.2246 2.23544C29.2183 2.17283 29.2262 2.10972 29.2476 2.05012L29.5547 0.768791C29.5714 0.645147 29.6386 0.532368 29.7423 0.454164C29.846 0.37596 29.9781 0.338437 30.1108 0.349467H47.6158C47.6931 0.350206 47.7694 0.366975 47.839 0.398615C47.9086 0.430256 47.9698 0.47596 48.0182 0.532417C48.0666 0.588875 48.1011 0.654717 48.119 0.725134C48.137 0.795552 48.138 0.86882 48.1221 0.939655L46.9933 5.70769C46.9767 5.81959 46.915 5.92128 46.8209 5.99202C46.7267 6.06277 46.6073 6.09718 46.4869 6.08819H44.8269" fill="#343434"/>
</svg>
