<svg id="Group_39788" data-name="Group 39788" xmlns="http://www.w3.org/2000/svg" xmlns:xlink="http://www.w3.org/1999/xlink" width="24" height="24" viewBox="0 0 24 24">
  <defs>
    <clipPath id="clip-path">
      <rect id="Rectangle_15556" data-name="Rectangle 15556" width="24" height="24" fill="#cdcdcd" stroke="#707070" stroke-width="1"/>
    </clipPath>
    <clipPath id="clip-path-2">
      <rect id="Rectangle_15555" data-name="Rectangle 15555" width="20.595" height="21.727" fill="#cdcdcd"/>
    </clipPath>
  </defs>
  <g id="Mask_Group_47" data-name="Mask Group 47" clip-path="url(#clip-path)">
    <g id="Group_39691" data-name="Group 39691" transform="translate(1.56 1.514)">
      <g id="Group_39690" data-name="Group 39690" transform="translate(0 0)" clip-path="url(#clip-path-2)">
        <path id="Path_82736" data-name="Path 82736" d="M10.292,21.727c-.4-.03-.813-.03-1.212-.094a2.159,2.159,0,0,1-1.826-2.067,2.085,2.085,0,0,0-3.131-1.779,2.206,2.206,0,0,1-3-.795c-.283-.447-.55-.9-.8-1.368a2.124,2.124,0,0,1,.8-3,2,2,0,0,0,.036-3.47A2.195,2.195,0,0,1,.392,6.01q.3-.529.613-1.053a2.3,2.3,0,0,1,3.2-.972,2.1,2.1,0,0,0,2.716-.662,2.075,2.075,0,0,0,.316-.961A2.249,2.249,0,0,1,9.313.046a9.623,9.623,0,0,1,2.243.043,2.09,2.09,0,0,1,1.776,2.062A2.072,2.072,0,0,0,16.367,4a2.468,2.468,0,0,1,1.423-.291,2.209,2.209,0,0,1,1.685,1.067q.42.673.8,1.373A2.178,2.178,0,0,1,19.537,9.1a3.62,3.62,0,0,0-.475.349,1.968,1.968,0,0,0,.328,3.109,2.19,2.19,0,0,1,.8,3.233c-.226.381-.447.765-.681,1.141a2.272,2.272,0,0,1-3.117.832,2.058,2.058,0,0,0-3.05,1.7A2.255,2.255,0,0,1,11.07,21.7c-.258.01-.517,0-.776,0,0,.009,0,.019,0,.029m0-7.819a3.053,3.053,0,1,0,.042-6.1,3.054,3.054,0,1,0-.042,6.1" transform="translate(0 0)" fill="#cdcdcd"/>
      </g>
    </g>
  </g>
</svg>
