<svg id="Group_39787" data-name="Group 39787" xmlns="http://www.w3.org/2000/svg" xmlns:xlink="http://www.w3.org/1999/xlink" width="24" height="24" viewBox="0 0 24 24">
  <defs>
    <clipPath id="clip-path">
      <rect id="Rectangle_15553" data-name="Rectangle 15553" width="24" height="24" fill="#fff" stroke="#707070" stroke-width="1" opacity="0.8"/>
    </clipPath>
  </defs>
  <g id="Mask_Group_46" data-name="Mask Group 46" clip-path="url(#clip-path)">
    <path id="Path_82719" data-name="Path 82719" d="M10.344.011H18.8a1.69,1.69,0,0,1,1.922,1.926q.007,6.523.011,13.047a1.66,1.66,0,0,1-1.843,1.855c-1.714,0-3.427.008-5.14-.007a.593.593,0,0,0-.579.322c-.645,1.015-1.307,2.018-1.967,3.023a.961.961,0,0,1-1.753-.022c-.645-1.014-1.29-2.029-1.92-3.052a.5.5,0,0,0-.494-.269c-1.7.01-3.4.006-5.1.005a1.68,1.68,0,0,1-1.909-1.9C.021,10.59.037,6.241,0,1.892A1.749,1.749,0,0,1,1.887,0c2.819.033,5.638.011,8.457.011m.051,4.511q-2.421,0-4.842,0c-.544,0-.87.269-.88.707-.011.462.316.751.871.757s1.092,0,1.638,0c2.658,0,5.316,0,7.973-.008a1.305,1.305,0,0,0,.677-.19.631.631,0,0,0,.216-.782.742.742,0,0,0-.774-.487q-2.439,0-4.878,0m-.05,4.344q2.35,0,4.7,0a2.636,2.636,0,0,0,.471-.031.712.712,0,0,0,.577-.7.7.7,0,0,0-.546-.684,2,2,0,0,0-.434-.036q-4.718,0-9.436,0c-.666,0-1.009.252-1.007.73s.326.719,1.012.719q2.332,0,4.663,0M8.588,10.28c-1.032,0-2.064-.005-3.095,0a.735.735,0,1,0,0,1.461c2.063.007,4.126.012,6.189-.01a1.1,1.1,0,0,0,.66-.291.63.63,0,0,0,.073-.779.745.745,0,0,0-.732-.382c-1.032,0-2.063,0-3.095,0" transform="translate(2.066 2.066)" fill="#cdcdcd"/>
    <rect id="Rectangle_15550" data-name="Rectangle 15550" width="21.6" height="21.6" transform="translate(1.2 1.2)" fill="none"/>
  </g>
</svg>
