<svg id="Group_39785" data-name="Group 39785" xmlns="http://www.w3.org/2000/svg" xmlns:xlink="http://www.w3.org/1999/xlink" width="24" height="24" viewBox="0 0 24 24">
  <defs>
    <clipPath id="clip-path">
      <rect id="Rectangle_15552" data-name="Rectangle 15552" width="24" height="24" fill="#fff" stroke="#707070" stroke-width="1" opacity="0.8"/>
    </clipPath>
  </defs>
  <g id="Mask_Group_45" data-name="Mask Group 45" clip-path="url(#clip-path)">
    <g id="Group_39689" data-name="Group 39689" transform="translate(1.2 2.401)">
      <path id="Path_82711" data-name="Path 82711" d="M.026,19.118H21.1c.006.111.017.208.017.3q0,5.888,0,11.776a2.609,2.609,0,0,1-2.02,2.6,3.2,3.2,0,0,1-.772.075q-7.761.006-15.521,0A2.631,2.631,0,0,1,.062,31.756a2.078,2.078,0,0,1-.048-.474q0-5.963,0-11.926c0-.069.008-.138.014-.238m5.8,3.16c-.649,0-1.3,0-1.948,0-.534,0-.7.168-.7.7q0,1.408,0,2.817c0,.52.187.7.706.7q1.933,0,3.865,0c.508,0,.7-.18.7-.677q.006-1.438,0-2.876c0-.5-.173-.664-.671-.667-.649,0-1.3,0-1.947,0m4.737,7.375h6.588a2.545,2.545,0,0,0,.329-.008.515.515,0,0,0,.067-1.009,1.741,1.741,0,0,0-.386-.03q-6.6,0-13.207,0a1.676,1.676,0,0,0-.386.031.514.514,0,0,0,.077,1.009,2.715,2.715,0,0,0,.329.007h6.588M14.249,26.5h2.7a3.818,3.818,0,0,0,.538-.015.515.515,0,0,0,.455-.543.527.527,0,0,0-.5-.5c-.059-.005-.12,0-.179,0H11.263a1.23,1.23,0,0,0-.239.008.509.509,0,0,0-.453.483.483.483,0,0,0,.36.524,1.135,1.135,0,0,0,.353.042c.989,0,1.977,0,2.965,0m-.031-3.176v0c1.058,0,2.116.006,3.173,0a.506.506,0,0,0,.548-.509.521.521,0,0,0-.535-.527c-.06,0-.12,0-.18,0q-2.979,0-5.958,0c-.1,0-.225-.022-.292.029-.149.112-.349.248-.378.4a.686.686,0,0,0,.21.506.7.7,0,0,0,.448.1c.988.008,1.976,0,2.964,0" transform="translate(0.236 -14.784)" fill="#cdcdcd"/>
      <path id="Path_82712" data-name="Path 82712" d="M21.07,3.145H.031A2.665,2.665,0,0,1,2.706,0q7.865,0,15.729,0A2.658,2.658,0,0,1,21.07,3.145" transform="translate(0.245 0.103)" fill="#cdcdcd"/>
      <path id="Path_82717" data-name="Path 82717" d="M19.054,40.242c0-.675-.006-1.3.009-1.929,0-.063.134-.174.207-.175.909-.012,1.818-.007,2.727-.009.166,0,.232.076.231.237,0,.56,0,1.119-.009,1.678,0,.067-.1.189-.156.19-.987.012-1.975.008-3.01.008" transform="translate(-14.592 -29.588)" fill="#cdcdcd"/>
      <rect id="Rectangle_15549" data-name="Rectangle 15549" width="21.6" height="19.2" fill="none"/>
    </g>
  </g>
</svg>
