<svg id="Group_39789" data-name="Group 39789" xmlns="http://www.w3.org/2000/svg" xmlns:xlink="http://www.w3.org/1999/xlink" width="24" height="24" viewBox="0 0 24 24">
  <defs>
    <clipPath id="clip-path">
      <rect id="Rectangle_15558" data-name="Rectangle 15558" width="24" height="24" fill="#92919e" stroke="#707070" stroke-width="1"/>
    </clipPath>
    <clipPath id="clip-path-2">
      <path id="Path_82785" data-name="Path 82785" d="M0,0H21.6V21.6H0Z" fill="#92919e"/>
    </clipPath>
  </defs>
  <g id="Mask_Group_48" data-name="Mask Group 48" clip-path="url(#clip-path)">
    <g id="Group_39694" data-name="Group 39694" transform="translate(1.2 1.2)">
      <g id="Mask_Group_76" data-name="Mask Group 76" transform="translate(0 0)" clip-path="url(#clip-path-2)">
        <path id="Path_82738" data-name="Path 82738" d="M0,8.628C0,6.386,0,4.143,0,1.9A1.824,1.824,0,0,1,1.431.055,2.206,2.206,0,0,1,1.99,0Q5.01,0,8.03,0A1.838,1.838,0,0,1,10,1.737c.3,2.41.6,4.822.9,7.232q.468,3.763.941,7.527a.621.621,0,0,1-.671.776q-4.6,0-9.194,0A1.831,1.831,0,0,1,.059,15.853,2.547,2.547,0,0,1,0,15.205Q0,11.917,0,8.628m8.015,2.455c-.005-.034-.011-.093-.023-.151Q7.4,7.96,6.8,4.989a.643.643,0,0,0-.716-.6c-.307-.009-.615,0-.922,0-.624,0-.782.137-.9.744-.291,1.467-.589,2.932-.88,4.4-.1.515-.213,1.029-.288,1.548a.567.567,0,0,0,.476.65.589.589,0,0,0,.7-.415,2.64,2.64,0,0,0,.076-.318c.1-.485.2-.97.288-1.457.032-.176.105-.254.294-.249q.624.017,1.249,0c.2-.006.272.088.305.274.1.556.211,1.109.328,1.662a.6.6,0,0,0,.692.507.616.616,0,0,0,.524-.647" transform="translate(0.32 0.321)" fill="#cdcdcd"/>
        <path id="Path_82739" data-name="Path 82739" d="M45.552,34.3l1.533-1.756c.359-.411.716-.823,1.077-1.231a2.072,2.072,0,0,0,.507-1.734c-.271-2.094-.522-4.191-.782-6.286-.244-1.967-.485-3.935-.739-5.9-.032-.251.027-.329.284-.328,2.38.008,4.76,0,7.139.007a1.879,1.879,0,0,1,2,2.021c0,4.4-.013,8.808.011,13.211a1.954,1.954,0,0,1-1.991,2.006c-2.915-.027-5.83-.009-8.746-.009Zm5.04-11.663v0c-.258,0-.516-.009-.773,0a.6.6,0,0,0-.64.568c-.019.341.182.557.56.649a.423.423,0,0,1,.269.213,7.961,7.961,0,0,0,1.236,2.291c.112.141.1.231-.038.342-.373.3-.737.6-1.1.9s-.419.631-.183.928a.634.634,0,0,0,.949.028c.387-.309.773-.62,1.143-.949.171-.152.28-.141.45,0,.415.353.846.687,1.279,1.017a.524.524,0,0,0,.688.025.813.813,0,0,0,.269-.543.831.831,0,0,0-.3-.507c-.362-.323-.752-.614-1.137-.909-.145-.111-.141-.2-.031-.341a7.888,7.888,0,0,0,1.279-2.3.387.387,0,0,1,.245-.2c.4-.1.611-.322.584-.661a.62.62,0,0,0-.683-.561c-.426-.009-.852,0-1.279,0-.619,0-.526.024-.531-.524a1.182,1.182,0,0,0-.014-.178.582.582,0,0,0-.593-.515.576.576,0,0,0-.6.512,3,3,0,0,0-.017.475c0,.162-.062.235-.229.232-.267-.006-.535,0-.8,0" transform="translate(-35.302 -13.023)" fill="#cdcdcd"/>
        <path id="Path_82740" data-name="Path 82740" d="M32.925,84.936h3.162a.971.971,0,0,1-.084.142c-.584.646-1.174,1.288-1.753,1.939a.257.257,0,0,1-.4.038,1.861,1.861,0,0,1-.823-1.319c-.034-.254-.063-.509-.1-.8" transform="translate(-25.427 -66.1)" fill="#cdcdcd"/>
        <path id="Path_82743" data-name="Path 82743" d="M23.839,28.18H22.656c.047-.257.086-.485.131-.713.1-.514.2-1.028.315-1.539.015-.067.1-.119.151-.178.059.054.158.1.172.163.15.705.287,1.414.425,2.122a.643.643,0,0,1-.011.146" transform="translate(-17.397 -19.815)" fill="#cdcdcd"/>
        <path id="Path_82744" data-name="Path 82744" d="M73.687,48.4a5.762,5.762,0,0,1-1,1.74,5.89,5.89,0,0,1-.989-1.74Z" transform="translate(-55.744 -37.53)" fill="#cdcdcd"/>
      </g>
    </g>
  </g>
</svg>
