<svg id="Group_39784" data-name="Group 39784" xmlns="http://www.w3.org/2000/svg" xmlns:xlink="http://www.w3.org/1999/xlink" width="24" height="24" viewBox="0 0 24 24">
  <defs>
    <clipPath id="clip-path">
      <rect id="Rectangle_15548" data-name="Rectangle 15548" width="24" height="24" fill="#cdcdcd" stroke="#707070" stroke-width="1"/>
    </clipPath>
    <clipPath id="clip-path-2">
      <rect id="Rectangle_15547" data-name="Rectangle 15547" width="21.62" height="21.477" fill="#cdcdcd"/>
    </clipPath>
  </defs>
  <g id="Mask_Group_43" data-name="Mask Group 43" transform="translate(0 0)" clip-path="url(#clip-path)">
    <g id="Group_39682" data-name="Group 39682" transform="translate(1.353 1.36)">
      <g id="Group_39681" data-name="Group 39681" transform="translate(0 0)" clip-path="url(#clip-path-2)">
        <path id="Path_82707" data-name="Path 82707" d="M6.81,4.366a2.84,2.84,0,0,1-.938-1.733A2.365,2.365,0,0,1,7.414.144a2.335,2.335,0,0,1,2.8.924c.225.383.391.8.611,1.26.095-.231.175-.421.252-.613A2.42,2.42,0,0,1,12.706.1a2.391,2.391,0,0,1,2.779,1.149,2.363,2.363,0,0,1-.6,2.963c-.03.025-.054.057-.129.137.164.008.278.018.393.018,1.6,0,3.192,0,4.788,0A1.583,1.583,0,0,1,21.564,5.55a1.557,1.557,0,0,1,.052.423c0,1.033.007,2.067,0,3.1a1.56,1.56,0,0,1-1.589,1.6q-9.222.006-18.444,0A1.558,1.558,0,0,1,.005,9.093C0,8.091,0,7.088,0,6.086A1.6,1.6,0,0,1,1.728,4.367c1.586,0,3.171,0,4.757,0H6.81m3.061-.372a8.645,8.645,0,0,0-.828-2.253.892.892,0,0,0-1-.378.96.96,0,0,0-.8.784.882.882,0,0,0,.356,1,8.2,8.2,0,0,0,2.273.843m1.843-.082.121.117c.691-.264,1.391-.509,2.071-.8a.92.92,0,0,0,.495-1,1.02,1.02,0,0,0-.828-.87.906.906,0,0,0-1.04.459c-.3.685-.548,1.394-.817,2.092" transform="translate(0 0)" fill="#cdcdcd"/>
        <path id="Path_82708" data-name="Path 82708" d="M43.071,44.99c.112-.006.212-.016.311-.016,2.548,0,5.1,0,7.645-.006.276,0,.366.068.365.357-.012,2.18,0,4.36-.008,6.54a2.488,2.488,0,0,1-1.94,2.512,1.588,1.588,0,0,1-.394.048q-2.9,0-5.8,0c-.05,0-.1-.006-.176-.011Z" transform="translate(-31.561 -32.951)" fill="#cdcdcd"/>
        <path id="Path_82709" data-name="Path 82709" d="M15.025,54.435H12.234q-1.5,0-3.009,0a2.449,2.449,0,0,1-2.512-2.44c-.025-2.251-.006-4.5-.01-6.755,0-.172.038-.262.237-.261q3.976.008,7.952.006a.832.832,0,0,1,.133.024Z" transform="translate(-4.91 -32.959)" fill="#cdcdcd"/>
      </g>
    </g>
  </g>
</svg>
