<svg id="Group_39790" data-name="Group 39790" xmlns="http://www.w3.org/2000/svg" xmlns:xlink="http://www.w3.org/1999/xlink" width="24" height="24" viewBox="0 0 24 24">
  <defs>
    <clipPath id="clip-path">
      <rect id="Rectangle_15563" data-name="Rectangle 15563" width="24" height="24" transform="translate(0 0)" fill="#92919e" stroke="#707070" stroke-width="1"/>
    </clipPath>
    <clipPath id="clip-path-2">
      <rect id="Rectangle_15560" data-name="Rectangle 15560" width="16.689" height="21.899" fill="#92919e"/>
    </clipPath>
  </defs>
  <g id="Mask_Group_50" data-name="Mask Group 50" transform="translate(0 0)" clip-path="url(#clip-path)">
    <g id="Group_39698" data-name="Group 39698" transform="translate(3.656 1.051)">
      <g id="Group_39697" data-name="Group 39697" transform="translate(0 0)" clip-path="url(#clip-path-2)">
        <path id="Path_82748" data-name="Path 82748" d="M10.013.016v.4q0,2.161,0,4.322a1.513,1.513,0,0,0,1.671,1.678c1.555,0,3.109.005,4.664,0,.251,0,.341.06.34.326-.007,4.239,0,8.479-.009,12.718A2.338,2.338,0,0,1,14.228,21.9q-5.892.005-11.785,0A2.335,2.335,0,0,1,.006,19.471Q-.006,10.95.006,2.43A2.336,2.336,0,0,1,2.44,0Q6.079,0,9.717,0c.082,0,.164.007.3.014M8.219,9.837h.715c1.316,0,2.632,0,3.948,0A.639.639,0,1,0,12.9,8.559c-.093-.005-.186,0-.28,0H5.382c-.6,0-1.2-.022-1.8.014A1.025,1.025,0,0,0,3,8.847a.507.507,0,0,0-.051.636.666.666,0,0,0,.641.355q2.316,0,4.631,0m-.007,3.421q2.316,0,4.631,0a.643.643,0,1,0,.005-1.278c-.062,0-.124,0-.186,0H3.772a2.385,2.385,0,0,0-.341.01.64.64,0,0,0-.538.8.676.676,0,0,0,.719.473q2.3,0,4.6,0M5.045,16.679c.5,0,.993,0,1.49,0a.636.636,0,0,0,.713-.644.624.624,0,0,0-.69-.633q-1.49-.009-2.98,0a.644.644,0,0,0-.7.627.654.654,0,0,0,.714.65c.486.005.973,0,1.459,0" transform="translate(0 0)" fill="#cdcdcd"/>
        <path id="Path_82749" data-name="Path 82749" d="M29.332.745C31.007,2.3,32.687,3.852,34.3,5.468l-.053.1c-.095.007-.19.022-.285.022-1.46,0-2.919,0-4.379,0-.258,0-.386-.084-.385-.355,0-1.418,0-2.836,0-4.255a1.1,1.1,0,0,1,.028-.175l.1-.066" transform="translate(-17.912 -0.457)" fill="#cdcdcd"/>
      </g>
    </g>
  </g>
</svg>
