<svg id="Group_39779" data-name="Group 39779" xmlns="http://www.w3.org/2000/svg" xmlns:xlink="http://www.w3.org/1999/xlink" width="24" height="24" viewBox="0 0 24 24">
  <defs>
    <clipPath id="clip-path">
      <rect id="Rectangle_15536" data-name="Rectangle 15536" width="24" height="24" fill="#cdcdcd" stroke="#707070" stroke-width="1"/>
    </clipPath>
    <clipPath id="clip-path-2">
      <rect id="Rectangle_15535" data-name="Rectangle 15535" width="20.825" height="20.814" fill="#cdcdcd"/>
    </clipPath>
  </defs>
  <g id="Mask_Group_38" data-name="Mask Group 38" clip-path="url(#clip-path)">
    <g id="Group_39668" data-name="Group 39668" transform="translate(1.588 1.593)">
      <g id="Group_39667" data-name="Group 39667" clip-path="url(#clip-path-2)">
        <path id="Path_82676" data-name="Path 82676" d="M19.093,10.681V11.1q0,4.346,0,8.691a.944.944,0,0,1-.516.951.554.554,0,0,1-.222.071c-.608.006-1.217,0-1.861,0V10.441H4.352V20.8c-.679,0-1.328.04-1.969-.015-.407-.035-.645-.449-.647-.937,0-1.015,0-2.03,0-3.045q0-2.853,0-5.705v-.424c-.259.182-.449.315-.638.449A.655.655,0,0,1,.35,11.2a.668.668,0,0,1-.345-.639c.008-.917.017-1.833,0-2.749a.935.935,0,0,1,.442-.865Q3.967,4.458,7.478,1.952,8.706,1.079,9.934.205a.67.67,0,0,1,.964,0Q15.667,3.6,20.435,6.985a.824.824,0,0,1,.39.741c-.014.926-.011,1.853,0,2.779a.7.7,0,0,1-.348.7.687.687,0,0,1-.8-.116c-.169-.127-.348-.241-.587-.4" transform="translate(0 -0.001)" fill="#cdcdcd"/>
        <path id="Path_82678" data-name="Path 82678" d="M26.01,56.628H16.455v-.782c0-.345.017-.69-.005-1.033-.018-.28.088-.348.354-.347,2.786.008,5.572.005,8.358.005.847,0,.847,0,.847.848v1.31" transform="translate(-10.819 -37.825)" fill="#cdcdcd"/>
        <path id="Path_82679" data-name="Path 82679" d="M21.233,46.517c-1.477,0-2.954-.005-4.431,0-.261,0-.369-.058-.355-.343.024-.491.023-.985,0-1.476-.013-.279.085-.348.351-.347,2.777.008,5.553,0,8.33.007.281,0,.651-.068.816.079.142.127.057.515.063.788.006.325-.013.651.006.974.014.25-.078.318-.32.317-1.487-.009-2.974,0-4.46,0" transform="translate(-10.818 -31.17)" fill="#cdcdcd"/>
      </g>
    </g>
  </g>
</svg>
